<svg width="300" height="300" viewBox="0 0 300 300" xmlns="http://www.w3.org/2000/svg">
  <rect width="300" height="300" rx="60" fill="#E1F5EE"/>

  <!-- cap -->
  <rect x="128" y="48" width="44" height="10" rx="5" fill="#0F766E"/>
  <path d="M110 40 L150 24 L190 40 L150 56 Z" fill="#0F766E"/>
  <circle cx="190" cy="40" r="4" fill="#0F766E"/>
  <line x1="190" y1="40" x2="190" y2="58" stroke="#0F766E" stroke-width="3"/>

  <!-- flask body -->
  <path d="M132 62 H168 V104 L206 190 C214 208 201 228 181 228 H119
           C99 228 86 208 94 190 L132 104 Z" fill="#1D9E75"/>

  <!-- liquid -->
  <path d="M118 160 L94 190 C86 208 99 228 119 228 H181
           C201 228 214 208 206 190 L182 160 Z" fill="#5DCAA5"/>

  <!-- bubbles -->
  <circle cx="140" cy="196" r="6" fill="#E1F5EE"/>
  <circle cx="162" cy="204" r="9" fill="#E1F5EE"/>
  <circle cx="152" cy="182" r="4" fill="#E1F5EE"/>

  <!-- face -->
  <circle cx="135" cy="150" r="7" fill="#04342C"/>
  <circle cx="165" cy="150" r="7" fill="#04342C"/>
  <circle cx="132" cy="147" r="2.4" fill="#ffffff"/>
  <circle cx="162" cy="147" r="2.4" fill="#ffffff"/>
  <path d="M138 166 Q150 176 162 166" stroke="#04342C" stroke-width="3.5" fill="none" stroke-linecap="round"/>
  <circle cx="120" cy="160" r="7" fill="#F0997B" opacity="0.55"/>
  <circle cx="180" cy="160" r="7" fill="#F0997B" opacity="0.55"/>

  <!-- sparkle -->
  <path d="M226 92 L230 102 L240 106 L230 110 L226 120 L222 110 L212 106 L222 102 Z" fill="#0D9488"/>
</svg>
